<svg width="184" height="48" viewBox="0 0 184 48" fill="none" xmlns="http://www.w3.org/2000/svg">
<path d="M60.4288 31.6992H57.2882V29.9597H57.2399C56.8533 30.6362 56.3218 31.1194 55.6454 31.4576C54.9689 31.8441 54.1959 31.9891 53.3745 31.9891C52.0699 31.9891 51.0552 31.6025 50.2822 30.8778C49.5091 30.1047 49.0742 28.9451 49.0742 27.3989V18.9434H52.3598V27.0124C52.3598 27.8821 52.6014 28.5102 53.0846 28.8967C53.4228 29.1867 53.9543 29.3316 54.5824 29.3316C55.2105 29.3316 55.7903 29.1383 56.2252 28.7518C56.805 28.2686 57.0949 27.4955 57.0949 26.4809V18.9434H60.3805V31.6992H60.4288Z" fill="#0D0D0D"/>
<path d="M66.4692 14.8839H63.1836V31.65H66.4692V14.8839Z" fill="#0D0D0D"/>
<path d="M73.668 14.8839H77.4367C78.4031 19.2807 79.0795 22.3247 79.4661 24.0642C79.7076 25.2721 79.9492 26.4317 80.1425 27.4947H80.1908L80.2875 26.7699C80.4807 25.562 80.7223 24.3541 80.9156 23.1945C81.3021 21.1168 81.8819 18.3627 82.5584 14.8839H86.2305C87.1968 19.3291 87.825 22.3247 88.1149 23.9675C88.3565 25.1271 88.5497 26.2868 88.7913 27.543H88.888C89.0329 26.625 89.2745 25.5137 89.5161 24.2574C89.9026 22.4214 90.6274 19.3291 91.5937 14.9322H95.1692L90.3858 32.0849H87.0036C86.0856 27.8329 85.5057 25.0305 85.2158 23.581C84.9259 22.0348 84.636 20.392 84.3944 18.6526H84.3461C84.0562 20.4404 83.7663 22.0348 83.4764 23.436C83.1865 24.9822 82.5584 27.8329 81.6403 32.0849H78.3548L73.668 14.8839Z" fill="#0D0D0D"/>
<path d="M103.24 25.6589C103.095 25.8038 102.854 25.9488 102.515 26.0454C102.177 26.1421 101.694 26.287 101.066 26.3836C100.293 26.5286 99.7612 26.6736 99.4713 26.8668C99.0364 27.1567 98.7948 27.6399 98.7948 28.2197C98.7948 28.7512 98.9398 29.1377 99.278 29.4276C99.5679 29.6209 99.9061 29.7659 100.293 29.7659C101.066 29.7659 101.742 29.5243 102.322 29.0894C102.95 28.6063 103.24 28.0264 103.24 27.3017V25.6589ZM106.477 29.2827C106.477 29.9591 106.526 30.394 106.671 30.7322C106.767 30.9255 106.96 31.1188 107.202 31.2154V31.6502H103.675C103.578 31.3603 103.482 31.1188 103.433 30.9738C103.385 30.7805 103.385 30.5389 103.337 30.249C102.757 30.7805 102.274 31.1671 101.839 31.4087C101.066 31.8435 100.244 32.0368 99.278 32.0368C98.215 32.0368 97.3453 31.7469 96.6689 31.1671C95.8958 30.4906 95.4609 29.5726 95.4609 28.3647C95.4609 27.205 95.7992 26.287 96.4756 25.5623C97.1037 24.9341 97.9734 24.4993 99.0847 24.3543L102.032 23.9195C102.37 23.8711 102.612 23.7745 102.805 23.6296C103.095 23.4363 103.192 23.243 103.192 22.9531C103.192 22.325 102.95 21.9384 102.419 21.6969C102.129 21.5519 101.646 21.5036 101.066 21.5036C100.293 21.5036 99.7612 21.6969 99.4713 22.0834C99.2297 22.3733 99.0847 22.7598 99.0364 23.243H95.8958C96.0407 21.5036 96.7172 20.2957 97.8285 19.6192C98.6499 19.136 99.8578 18.8461 101.452 18.8461C102.66 18.8461 103.723 19.0877 104.593 19.4743C105.801 20.1024 106.429 21.117 106.429 22.4699V29.2827" fill="#0D0D0D"/>
<path d="M112.563 14.8838H109.277V31.6499H112.563V14.8838Z" fill="#0D0D0D"/>
<path d="M118.653 14.8839H115.367V31.65H118.653V14.8839Z" fill="#0D0D0D"/>
<path d="M125.368 28.2686C125.851 28.9933 126.624 29.3799 127.59 29.3799C128.557 29.3799 129.233 28.945 129.716 28.027C130.103 27.3505 130.296 26.5291 130.296 25.6111C130.296 24.4998 130.103 23.6301 129.668 22.9536C129.185 22.1806 128.46 21.794 127.494 21.794C126.431 21.794 125.706 22.1806 125.223 23.002C124.836 23.6784 124.643 24.5481 124.643 25.7561C124.74 26.7707 124.933 27.6404 125.368 28.2686ZM124.691 21.0693C125.126 20.4411 125.561 19.958 125.996 19.6681C126.672 19.1849 127.494 18.9433 128.46 18.9433C129.91 18.9433 131.118 19.4748 132.084 20.5378C133.147 21.6974 133.678 23.2919 133.678 25.3695C133.678 27.2539 133.244 28.8001 132.422 30.008C131.456 31.4092 130.151 32.0856 128.412 32.0856C127.397 32.0856 126.576 31.8441 125.948 31.3609C125.561 31.071 125.223 30.6844 124.885 30.1529V34.7431H121.551V19.2815H124.691V21.0693Z" fill="#0D0D0D"/>
<path d="M142.859 25.6589C142.714 25.8038 142.472 25.9488 142.134 26.0454C141.796 26.1421 141.313 26.287 140.636 26.3836C139.863 26.5286 139.38 26.6736 139.042 26.8668C138.607 27.1567 138.365 27.6399 138.365 28.2197C138.365 28.7512 138.558 29.1377 138.848 29.4276C139.138 29.6209 139.476 29.7659 139.863 29.7659C140.636 29.7659 141.313 29.5243 141.844 29.0894C142.472 28.6063 142.762 28.0264 142.762 27.3017V25.6589H142.859ZM146.096 29.2827C146.096 29.9591 146.144 30.394 146.289 30.7322C146.386 30.9255 146.579 31.1188 146.772 31.2154V31.6502H143.245C143.149 31.3603 143.052 31.1188 143.004 30.9738C142.955 30.7805 142.955 30.5389 142.907 30.249C142.327 30.7805 141.844 31.1671 141.409 31.4087C140.636 31.8435 139.815 32.0368 138.848 32.0368C137.785 32.0368 136.916 31.7469 136.239 31.1671C135.466 30.4906 135.031 29.5726 135.031 28.3647C135.031 27.205 135.369 26.287 136.094 25.5623C136.722 24.9341 137.592 24.4993 138.655 24.3543L141.602 23.9195C141.941 23.8711 142.182 23.7745 142.376 23.6296C142.617 23.4363 142.762 23.243 142.762 22.9531C142.762 22.325 142.52 21.9384 141.989 21.6969C141.699 21.5519 141.216 21.5036 140.636 21.5036C139.911 21.5036 139.332 21.6969 139.042 22.0834C138.8 22.3733 138.655 22.7598 138.607 23.243H135.466C135.611 21.5036 136.288 20.2957 137.399 19.6192C138.22 19.136 139.428 18.8461 141.023 18.8461C142.231 18.8461 143.294 19.0877 144.163 19.4743C145.371 20.1024 145.999 21.117 145.999 22.4699V29.2827" fill="#0D0D0D"/>
<path d="M152.813 28.2686C153.296 28.9933 154.069 29.3799 155.036 29.3799C156.002 29.3799 156.679 28.945 157.162 28.027C157.548 27.3505 157.742 26.5291 157.742 25.6111C157.742 24.4998 157.548 23.6301 157.113 22.9536C156.63 22.1806 155.905 21.794 154.939 21.794C153.876 21.794 153.151 22.1806 152.668 23.002C152.282 23.6784 152.137 24.5481 152.137 25.7561C152.137 26.7707 152.378 27.6404 152.813 28.2686ZM152.137 21.0693C152.572 20.4411 153.006 19.958 153.441 19.6681C154.118 19.1849 154.939 18.9433 155.905 18.9433C157.355 18.9433 158.563 19.4748 159.529 20.5378C160.592 21.6974 161.075 23.2919 161.075 25.3695C161.075 27.2539 160.641 28.8001 159.819 30.008C158.853 31.4092 157.548 32.0856 155.809 32.0856C154.794 32.0856 153.973 31.8441 153.345 31.3609C152.958 31.071 152.62 30.6844 152.282 30.1529V34.7431H148.996V19.2815H152.137V21.0693Z" fill="#0D0D0D"/>
<path d="M170.787 24.258C170.691 23.34 170.401 22.6635 169.869 22.2287C169.434 21.8904 168.903 21.6972 168.323 21.6972C167.598 21.6972 167.018 21.9388 166.584 22.3736C166.149 22.8085 165.907 23.4366 165.81 24.258H170.787ZM174.024 28.0751C173.638 29.428 172.865 30.4909 171.754 31.1674C170.835 31.7472 169.772 32.0854 168.613 32.0854C166.728 32.0854 165.279 31.6022 164.216 30.5876C163.056 29.428 162.477 27.6402 162.477 25.2727C162.477 23.8715 162.766 22.6152 163.395 21.5522C164.409 19.8611 166.052 18.9914 168.371 18.9914C169.917 18.9914 171.174 19.4263 172.188 20.296C173.493 21.4556 174.169 23.2916 174.169 25.8525V26.4806H165.762V26.5772C165.859 27.3986 166.052 28.0268 166.342 28.4133C166.777 29.1381 167.55 29.5246 168.613 29.5246C169.048 29.5246 169.483 29.428 169.869 29.1381C170.256 28.8965 170.546 28.5582 170.691 28.1234H174.024" fill="#0D0D0D"/>
<path d="M176.488 19.2815H179.629V21.4558C180.064 20.6344 180.45 20.0546 180.885 19.7164C181.465 19.2332 182.238 18.9433 183.204 18.9433L183.833 18.9916V22.3255C183.688 22.2772 183.543 22.2289 183.349 22.2289C183.253 22.2289 183.108 22.2289 182.914 22.2289C181.707 22.2289 180.837 22.5671 180.305 23.1952C179.919 23.6784 179.774 24.3549 179.774 25.2246V31.6508H176.488V19.2815Z" fill="#0D0D0D"/>
<path d="M18.0071 16.382C18.8769 17.3484 19.36 18.508 19.36 19.8609H16.0261C15.9295 19.2327 15.7362 18.7012 15.398 18.363C14.8182 17.7349 13.8518 17.3967 12.5473 17.3967C11.7742 17.3967 11.0977 17.5416 10.5663 17.8315C9.93812 18.1698 9.5999 18.7012 9.5999 19.3777C9.5999 19.9092 9.79317 20.344 10.1797 20.6339C10.4213 20.8272 10.8078 20.9722 11.3393 21.1171H11.3876L15.4946 22.1318C16.8475 22.4217 17.8622 22.8565 18.5386 23.4364C19.4567 24.1611 19.8915 25.2724 19.8915 26.6253C19.8915 28.7513 18.9735 30.2974 17.1374 31.2155C16.0261 31.7953 14.7215 32.0852 13.272 32.0852C10.5663 32.0852 8.58524 31.4087 7.32898 30.0558C6.45927 29.0895 6.02441 27.9299 6.02441 26.5287H9.40663C9.40663 27.2051 9.64822 27.7366 10.0348 28.1715C10.6629 28.8479 11.6292 29.1378 13.0304 29.1378C13.9968 29.1378 14.8182 28.9929 15.398 28.7513C16.1711 28.4131 16.5576 27.8332 16.5576 27.0602C16.5576 26.4804 16.2677 25.9972 15.6879 25.659C15.253 25.4174 14.5283 25.2241 13.5136 24.9825L11.7259 24.5477C10.8078 24.3544 10.1314 24.1611 9.69654 24.0162C9.02009 23.7746 8.44028 23.533 8.00543 23.2431C7.47394 22.8565 7.03908 22.4217 6.79749 21.8902C6.50759 21.2621 6.36263 20.5373 6.36263 19.6676C6.36263 18.363 6.74917 17.3 7.52225 16.382C8.63355 15.1258 10.4213 14.4976 12.8372 14.4976C15.1081 14.4493 16.8475 15.1258 18.0071 16.382ZM30.7629 20.2474C32.0675 21.407 32.744 23.2431 32.744 25.8039V26.432H24.3367V26.5287C24.4334 27.3501 24.6266 27.9782 24.9165 28.3647C25.3514 29.0895 26.1245 29.476 27.1874 29.476C27.6706 29.476 28.0572 29.3794 28.4437 29.0895C28.8302 28.8479 29.1201 28.5097 29.2651 28.0748H32.599C32.2125 29.4277 31.4394 30.4907 30.3281 31.1671C29.41 31.747 28.3471 32.0852 27.1874 32.0852C25.3031 32.0852 23.8535 31.602 22.8389 30.5873C21.6793 29.4277 21.0511 27.64 21.0511 25.2724C21.0511 23.8712 21.341 22.615 21.9692 21.552C22.9838 19.8609 24.6266 18.9912 26.9459 18.9912C28.5403 18.9428 29.7966 19.3777 30.7629 20.2474ZM44.1952 20.5373C45.4514 21.7452 46.1279 23.388 46.1279 25.514C46.1279 27.64 45.4998 29.2828 44.1952 30.4424C43.0356 31.5054 41.6344 32.0369 39.8949 32.0369C38.1072 32.0369 36.6577 31.5054 35.498 30.4424C34.2418 29.2344 33.5653 27.5917 33.5653 25.514C33.5653 23.388 34.1935 21.7452 35.498 20.5373C36.6577 19.4743 38.1072 18.9428 39.8949 18.9428C41.6344 18.9428 43.0356 19.4743 44.1952 20.5373ZM0.757812 24.1128C0.757812 36.8686 11.0977 47.2569 23.9019 47.2569C36.6577 47.2569 47.0459 36.9169 47.0459 24.1128C47.0459 11.3087 36.6577 0.96875 23.9019 0.96875C11.0977 0.96875 0.757812 11.3087 0.757812 24.1128ZM24.4817 24.2578H29.41C29.3134 23.3397 29.0235 22.6633 28.492 22.2284C28.0572 21.8902 27.5257 21.6969 26.9459 21.6969C26.2211 21.6969 25.6413 21.9385 25.2064 22.3734C24.8199 22.8082 24.53 23.4364 24.4817 24.2578ZM37.5274 23.0015C37.1892 23.6296 36.9959 24.451 36.9959 25.514C36.9959 26.5287 37.1892 27.3501 37.5274 27.9782C38.0106 28.8479 38.8319 29.2828 39.8949 29.2828C40.9579 29.2828 41.731 28.8479 42.2142 27.9782C42.5524 27.3501 42.7457 26.5287 42.7457 25.514C42.7457 24.451 42.5524 23.6296 42.2142 23.0015C41.731 22.1318 40.9579 21.6969 39.8949 21.6969C38.7836 21.6969 38.0106 22.1318 37.5274 23.0015Z" fill="#0D0D0D"/>
</svg>
